<svg xmlns="http://www.w3.org/2000/svg" xmlns:xlink="http://www.w3.org/1999/xlink" viewBox="0 0 120 60">
  <path fill="#4885ed" d="M32.4 26.4H19.9v3.8h8.8c-.4 5.2-4.7 7.4-8.8 7.4a9.8 9.8 0 0 1-9.8-9.9 9.8 9.8 0 0 1 16.5-7.3l2.6-2.7S25.8 14 19.7 14C12 14 6 20.6 6 27.6s5.6 13.7 14 13.7c7.3 0 12.6-5 12.6-12.4 0-1.6-.2-2.5-.2-2.5z"/>
  <use xlink:href="#a" fill="#db3236"/>
  <use xlink:href="#a" x="19.2" fill="#f4c20d"/>
  <path fill="#4885ed" d="M80.6 23.8a8.7 8.7 0 0 0-8.4 8.7c0 5.3 4.3 8.8 8.3 8.8 2.5 0 3.9-1 4.8-2.1v1.7c0 3-1.8 4.9-4.6 4.9-2.6 0-4-2-4.5-3.2L73 44a8.4 8.4 0 0 0 7.9 5.2c4.7 0 8.2-3 8.2-9.2V24.3h-3.6v1.5a6.2 6.2 0 0 0-4.8-2zm.4 3.4c2.3 0 4.7 2 4.7 5.4 0 3.4-2.4 5.3-4.8 5.3-2.5 0-4.8-2-4.8-5.3 0-3.4 2.4-5.4 4.9-5.4z"/>
  <path fill="#db3236" d="M105.4 23.7c-4.4 0-8.2 3.6-8.2 8.8 0 5.5 4.2 8.8 8.6 8.8 3.7 0 6-2 7.4-3.8l-3-2a5 5 0 0 1-4.4 2.4c-2.4 0-3.6-1.4-4.3-2.7l11.8-4.9-.6-1.4a8 8 0 0 0-7.3-5.2zm.2 3.4c1.6 0 2.7.9 3.2 1.9l-7.9 3.3c-.3-2.6 2.1-5.2 4.6-5.2z"/>
  <path fill="#3cba54" d="M91.6 40.8h3.9V14.9h-3.9z"/>
  <defs>
    <path id="a" d="M42.6 23.8c-5.1 0-8.8 4-8.8 8.7 0 4.7 3.6 8.8 8.9 8.8 4.8 0 8.7-3.7 8.7-8.7 0-5.8-4.5-8.8-8.8-8.8zm0 3.4c2.6 0 5 2 5 5.3s-2.4 5.4-5 5.4c-2.7 0-5-2.3-5-5.4 0-3 2.3-5.3 5-5.3z"/>
  </defs>
</svg>
